<?xml version="1.0" encoding="UTF-8" standalone="no"?>
<!DOCTYPE svg PUBLIC "-//W3C//DTD SVG 1.1//EN" "http://www.w3.org/Graphics/SVG/1.1/DTD/svg11.dtd">
<svg width="100%" height="100%" viewBox="0 0 100 100" version="1.1" xmlns="http://www.w3.org/2000/svg" xmlns:xlink="http://www.w3.org/1999/xlink" xml:space="preserve" xmlns:serif="http://www.serif.com/" style="fill-rule:evenodd;clip-rule:evenodd;stroke-linejoin:round;stroke-miterlimit:2;">
    <g id="Raw">
        <path d="M100,5.147L100,94.853L94.853,100L5.147,100L0,94.853L0,5.147L5.147,0L94.853,0L100,5.147Z" style="fill:rgb(57,153,142);"/>
        <g transform="matrix(1.171429,0,0,1.052632,-12.085714,-0.526316)">
            <path d="M73.417,12.969L73.417,7.031L88,7.031L90.668,10L90.668,25.833L85.332,25.833L85.332,12.969L73.417,12.969ZM85.332,32.167L90.668,32.167L90.668,63.833L85.332,63.833L85.332,32.167ZM85.332,70.167L90.668,70.167L90.668,86L88,88.969L73.417,88.969L73.417,83.031L85.332,83.031L85.332,70.167ZM67.583,83.031L67.583,88.969L38.417,88.969L38.417,83.031L67.583,83.031ZM32.583,83.031L32.583,88.969L18,88.969L15.332,86L15.332,70.167L20.668,70.167L20.668,83.031L32.583,83.031ZM20.668,63.833L15.332,63.833L15.332,32.167L20.668,32.167L20.668,63.833ZM20.668,25.833L15.332,25.833L15.332,10L18,7.031L32.583,7.031L32.583,12.969L20.668,12.969L20.668,25.833ZM38.417,12.969L38.417,7.031L67.583,7.031L67.583,12.969L38.417,12.969Z" style="fill:rgb(71,255,191);"/>
        </g>
        <g transform="matrix(-1.09375,-0,0,-1.09375,115.625,100.46875)">
            <path d="M55.889,51.611L50.778,49.056L57.444,35.722L62.556,35.722L69.222,49.056L64.111,51.611L60,43.389L55.889,51.611ZM66.778,56.944L71.889,54.389L78.556,67.722L76,71.857L62.667,71.857L62.667,66.143L71.377,66.143L66.778,56.944ZM57.333,66.143L57.333,71.857L44,71.857L41.444,67.722L48.111,54.389L53.222,56.944L48.623,66.143L57.333,66.143Z" style="fill:rgb(71,255,191);"/>
        </g>
        <rect x="25" y="71.875" width="50" height="6.25" style="fill:rgb(71,255,191);"/>
    </g>
</svg>
